# xmcd
#
# Track frame offsets:
#	150
#	19809
#	40187
#	62487
#	78740
#	96002
#	111044
#	128352
#	144420
#
# Disc length: 2179 seconds
#
# Revision: 1
# Processed by: cddbd v1.5.2PL0 Copyright (c) Steve Scherf et al.
# Submitted via: audiograbber 1.83.01
#
DISCID=6a088109
DTITLE=Allen and Hart - Long Gone
DYEAR=2002
DGENRE=Country
TTITLE0=Too Late To Say Goodbye
TTITLE1=Long Gone
TTITLE2=Hope Chest
TTITLE3=Been Lookin' For You
TTITLE4=Why Can't We Care
TTITLE5=Like I Loved You Then
TTITLE6=Back In Time
TTITLE7=Just For A While
TTITLE8=Someone Special
EXTD=
EXTT0=
EXTT1=
EXTT2=
EXTT3=
EXTT4=
EXTT5=
EXTT6=
EXTT7=
EXTT8=
PLAYORDER=
